<?xml version="1.0" encoding="utf-8"?>
<svg xmlns="http://www.w3.org/2000/svg" width="734.335" height="148.333">
  <text font-family="&apos;Frutiger-Bold&apos;" font-size="92" transform="translate(-3.963 273.667)">Limelight</text>
  <text fill="#FFD022" font-family="&apos;Frutiger-Bold&apos;" font-size="20" letter-spacing="11" transform="translate(516.04 280.5)">event services</text>
  <text fill="#69757C" font-family="&apos;Frutiger-Bold&apos;" font-size="42" letter-spacing="18" transform="translate(435.377 248.504)">Limelight</text>
  <path fill="#E7AE22" d="M169.302 135.714c-76.575 0-138.652-31.138-138.652-69.549 0-29.196 35.869-54.186 86.705-64.498C51.445 7.649 1.334 37.618 1.334 73.692c0 40.379 62.786 73.115 140.237 73.115 37.8 0 72.101-7.799 97.32-20.476-20.454 5.963-44.225 9.383-69.589 9.383z"/>
  <path fill="#FED818" d="M178.491 117.321c-61.983 0-112.229-25.204-112.229-56.294 0-23.631 29.033-43.859 70.181-52.206-53.348 4.842-93.909 29.099-93.909 58.298 0 32.684 50.82 59.181 113.51 59.181 30.596 0 58.359-6.313 78.772-16.574-16.555 4.828-35.796 7.595-56.325 7.595z"/>
  <g fill="#FED818">
    <path d="M313.044 128.457c-1.554.856-3.329 1.3-5.611 1.3-5.389 0-8.527-3.107-8.527-8.464 0-4.723 2.504-8.621 7.576-8.621 6.054 0 7.767 4.152 7.767 9.857h-11.285c.191 2.632 2.029 4.121 4.66 4.121 2.061 0 3.835-.76 5.421-1.648v3.455zm-2.853-8.844c-.127-2.062-1.078-3.836-3.456-3.836-2.377 0-3.581 1.648-3.772 3.836h7.228zM333.197 113.052h4.564l4.058 11.886h.063l3.931-11.886h4.248l-6.022 16.324h-4.787l-6.055-16.324zM383.147 128.457c-1.553.856-3.329 1.3-5.611 1.3-5.388 0-8.527-3.107-8.527-8.464 0-4.723 2.504-8.621 7.577-8.621 6.054 0 7.765 4.152 7.765 9.857h-11.284c.19 2.632 2.028 4.121 4.66 4.121 2.06 0 3.836-.76 5.42-1.648v3.455zm-2.853-8.844c-.127-2.062-1.078-3.836-3.454-3.836-2.377 0-3.583 1.648-3.773 3.836h7.227zM405.106 113.052h4.026v2.218h.064c1.333-1.87 3.138-2.598 5.357-2.598 3.867 0 5.546 2.725 5.546 6.403v10.302h-4.249v-8.717c0-1.998-.031-4.692-2.757-4.692-3.073 0-3.739 3.329-3.739 5.421v7.988h-4.249v-16.325zM443.296 116.157h-3.14v-3.105h3.14v-3.265l4.248-1.363v4.628h3.771v3.105h-3.771v7.607c0 1.396.38 2.694 1.997 2.694.761 0 1.488-.158 1.933-.442l.127 3.359c-.887.253-1.871.38-3.139.38-3.328 0-5.166-2.061-5.166-5.293v-8.305zM507.601 116.475c-1.299-.444-2.252-.698-3.804-.698-1.141 0-2.506.412-2.506 1.808 0 2.6 7.388.95 7.388 6.846 0 3.805-3.393 5.326-6.848 5.326-1.616 0-3.265-.286-4.817-.698l.253-3.486c1.332.666 2.727 1.077 4.184 1.077 1.079 0 2.79-.412 2.79-1.997 0-3.202-7.386-1.015-7.386-6.911 0-3.519 3.074-5.071 6.403-5.071 1.998 0 3.297.317 4.629.602l-.286 3.202zM542.494 128.457c-1.554.856-3.33 1.3-5.611 1.3-5.388 0-8.526-3.107-8.526-8.464 0-4.723 2.503-8.621 7.576-8.621 6.054 0 7.766 4.152 7.766 9.857h-11.285c.189 2.632 2.027 4.121 4.658 4.121 2.062 0 3.838-.76 5.423-1.648v3.455zm-2.853-8.844c-.127-2.062-1.078-3.836-3.454-3.836-2.38 0-3.584 1.648-3.773 3.836h7.227zM564.549 113.052h3.772v3.708h.062c.188-1.521 1.935-4.088 4.47-4.088.411 0 .856 0 1.3.126v4.279c-.382-.221-1.143-.348-1.9-.348-3.457 0-3.457 4.312-3.457 6.655v5.992h-4.246v-16.324zM592.405 113.052h4.565l4.058 11.886h.062l3.931-11.886h4.246l-6.022 16.324h-4.785l-6.055-16.324zM629.359 106.014h4.246v4.058h-4.246v-4.058zm0 7.038h4.246v16.324h-4.246v-16.324zM666.091 116.569c-.758-.348-1.584-.602-2.884-.602-2.631 0-4.312 2.092-4.312 5.167 0 3.011 1.427 5.325 4.407 5.325 1.204 0 2.534-.442 3.265-.76l.189 3.52c-1.235.379-2.504.538-4.247.538-5.356 0-8.052-3.646-8.052-8.622 0-4.723 2.791-8.463 7.895-8.463 1.711 0 2.946.19 4.119.538l-.38 3.359zM700.099 128.457c-1.554.856-3.327 1.3-5.611 1.3-5.388 0-8.527-3.107-8.527-8.464 0-4.723 2.504-8.621 7.577-8.621 6.054 0 7.766 4.152 7.766 9.857h-11.285c.189 2.632 2.028 4.121 4.662 4.121 2.058 0 3.834-.76 5.419-1.648v3.455zm-2.854-8.844c-.128-2.062-1.077-3.836-3.454-3.836s-3.584 1.648-3.773 3.836h7.227zM731.759 116.475c-1.3-.444-2.253-.698-3.803-.698-1.143 0-2.507.412-2.507 1.808 0 2.6 7.387.95 7.387 6.846 0 3.805-3.392 5.326-6.849 5.326-1.615 0-3.262-.286-4.815-.698l.254-3.486c1.33.666 2.724 1.077 4.184 1.077 1.078 0 2.788-.412 2.788-1.997 0-3.202-7.388-1.015-7.388-6.911 0-3.519 3.077-5.071 6.404-5.071 1.999 0 3.299.317 4.63.602l-.285 3.202z"/>
  </g>
  <path fill="#69757C" d="M183.464 40.345c0-1.197.456-2.281 1.312-3.079a4.35 4.35 0 0 1 3.135-1.312c2.397 0 4.392 1.996 4.392 4.391s-1.995 4.391-4.392 4.391c-2.451 0-4.447-1.996-4.447-4.391z"/>
  <g fill="#69757C">
    <path d="M121.463 38.551h9.319v39.14h18.039v7.323h-27.358V38.551zM183.424 50.732h8.92v34.281h-8.92V50.732zM230.876 50.732h8.321v4.792h.133c2.795-4.194 6.856-5.591 10.185-5.591 4.792 0 8.188 1.796 10.118 6.057 2.063-4.127 6.523-6.057 10.717-6.057 8.454 0 10.85 5.791 10.85 13.445v21.634h-8.92V64.578c0-3.196 0-7.722-5.125-7.722-5.925 0-6.657 7.056-6.657 11.516v16.641h-8.919V64.578c0-3.196 0-7.722-5.126-7.722-5.924 0-6.656 7.056-6.656 11.516v16.641h-8.92V50.732zM346.949 83.083c-3.261 1.797-6.988 2.729-11.781 2.729-11.317 0-17.906-6.522-17.906-17.773 0-9.917 5.259-18.105 15.909-18.105 12.713 0 16.308 8.72 16.308 20.702h-23.697c.399 5.525 4.26 8.654 9.786 8.654 4.327 0 8.054-1.599 11.381-3.462v7.255zm-5.991-18.572c-.266-4.327-2.263-8.055-7.255-8.055-4.993 0-7.522 3.461-7.922 8.055h15.177zM385.945 37.667l8.919-2.578v49.924h-8.919V37.667zM433.729 50.732h8.92v34.281h-8.92V50.732zM512.801 50.732v30.952c0 9.319-3.727 18.105-18.105 18.105-3.528 0-7.588-.533-11.85-2.329l.733-7.589c2.729 1.464 7.188 2.996 9.984 2.996 9.851 0 10.317-7.389 10.317-13.313h-.133c-1.665 2.928-5.657 5.458-10.649 5.458-10.12 0-13.979-8.121-13.979-17.307 0-8.254 4.262-17.772 14.512-17.772 4.525 0 8.054 1.53 10.518 5.458h.132v-4.659h8.52zm-8.92 16.775c0-5.857-2.262-10.651-7.455-10.651-6.057 0-7.988 5.592-7.988 10.851 0 4.659 2.464 10.383 7.589 10.383 5.592 0 7.854-4.859 7.854-10.583zM551.262 38.063l8.92-2.974v20.303h.133c2.265-3.329 6.125-5.458 10.786-5.458 8.121 0 11.646 5.724 11.646 13.445v21.634h-8.919V66.708c0-4.194-.064-9.853-5.791-9.853-6.456 0-7.854 6.99-7.854 11.383v16.774h-8.92V38.063zM624.138 57.255h-6.589v-6.522h6.589v-6.857l8.92-2.861v9.718h7.923v6.522h-7.923v15.976c0 2.93.798 5.659 4.193 5.659 1.598 0 3.13-.334 4.062-.934l.266 7.057c-1.863.533-3.928.799-6.589.799-6.989 0-10.852-4.327-10.852-11.115V57.255z"/>
  </g>
  <path fill="#69757C" d="M433.769 40.345c0-1.197.457-2.281 1.312-3.079a4.35 4.35 0 0 1 3.136-1.312c2.397 0 4.392 1.996 4.392 4.391s-1.994 4.391-4.392 4.391c-2.452 0-4.448-1.996-4.448-4.391z"/>
  <path fill="#E7AE22" d="M131.222-57.247c-48.324 0-87.5-19.65-87.5-43.891 0-18.425 22.637-34.195 54.717-40.703-41.593 3.775-73.217 22.688-73.217 45.453 0 25.482 39.623 46.141 88.5 46.141 23.854 0 45.5-4.922 61.416-12.922-12.909 3.764-27.909 5.922-43.916 5.922z"/>
  <path fill="#FED818" d="M137.021-68.854c-39.115 0-70.824-15.905-70.824-35.526 0-14.913 18.322-27.678 44.289-32.946-33.666 3.056-59.264 18.363-59.264 36.791 0 20.626 32.071 37.347 71.633 37.347 19.309 0 36.83-3.984 49.712-10.459-10.449 3.046-22.591 4.793-35.546 4.793z"/>
  <g fill="#E7AE22">
    <path d="M221.934-61.827c-.98.54-2.101.82-3.541.82-3.4 0-5.381-1.961-5.381-5.342 0-2.98 1.58-5.44 4.78-5.44 3.821 0 4.902 2.62 4.902 6.221h-7.122c.12 1.661 1.28 2.601 2.94 2.601 1.301 0 2.42-.479 3.421-1.04v2.18zm-1.8-5.581c-.08-1.301-.681-2.421-2.182-2.421-1.5 0-2.26 1.04-2.38 2.421h4.562zM234.651-71.549h2.881l2.561 7.501h.04l2.48-7.501h2.681l-3.801 10.302h-3.021l-3.821-10.302zM266.174-61.827c-.98.54-2.101.82-3.541.82-3.4 0-5.381-1.961-5.381-5.342 0-2.98 1.58-5.44 4.78-5.44 3.821 0 4.902 2.62 4.902 6.221h-7.122c.12 1.661 1.28 2.601 2.94 2.601 1.301 0 2.42-.479 3.421-1.04v2.18zm-1.8-5.581c-.08-1.301-.681-2.421-2.182-2.421-1.5 0-2.26 1.04-2.38 2.421h4.562zM280.032-71.549h2.54v1.399h.04c.84-1.18 1.98-1.64 3.381-1.64 2.44 0 3.5 1.72 3.5 4.041v6.501h-2.68v-5.501c0-1.261-.021-2.961-1.74-2.961-1.941 0-2.361 2.101-2.361 3.421v5.041h-2.68v-10.301zM304.132-69.589h-1.98v-1.96h1.98v-2.061l2.681-.86v2.921h2.381v1.96h-2.381v4.801c0 .881.24 1.7 1.261 1.7.48 0 .939-.1 1.22-.279l.08 2.12c-.56.16-1.181.24-1.98.24-2.101 0-3.261-1.301-3.261-3.341v-5.241zM344.713-69.389c-.819-.28-1.421-.44-2.4-.44-.72 0-1.581.26-1.581 1.141 0 1.641 4.662.6 4.662 4.32 0 2.401-2.141 3.361-4.321 3.361-1.021 0-2.061-.181-3.04-.44l.159-2.2c.841.42 1.721.68 2.641.68.681 0 1.761-.26 1.761-1.26 0-2.021-4.661-.641-4.661-4.361 0-2.221 1.94-3.2 4.041-3.2 1.261 0 2.08.2 2.921.38l-.182 2.019zM366.733-61.827c-.98.54-2.102.82-3.541.82-3.4 0-5.381-1.961-5.381-5.342 0-2.98 1.58-5.44 4.781-5.44 3.82 0 4.9 2.62 4.9 6.221h-7.121c.119 1.661 1.279 2.601 2.939 2.601 1.301 0 2.422-.479 3.422-1.04v2.18zm-1.8-5.581c-.08-1.301-.68-2.421-2.18-2.421-1.502 0-2.262 1.04-2.381 2.421h4.561zM380.651-71.549h2.381v2.34h.039c.119-.96 1.221-2.58 2.82-2.58.26 0 .541 0 .82.08v2.7c-.24-.14-.721-.22-1.199-.22-2.182 0-2.182 2.721-2.182 4.2v3.781h-2.68v-10.301zM398.231-71.549h2.881l2.561 7.501h.039l2.48-7.501h2.68l-3.801 10.302h-3.02l-3.82-10.302zM421.552-75.99h2.68v2.561h-2.68v-2.561zm0 4.441h2.68v10.302h-2.68v-10.302zM444.734-69.329c-.479-.22-1-.38-1.82-.38-1.66 0-2.721 1.32-2.721 3.261 0 1.9.9 3.36 2.781 3.36.76 0 1.6-.279 2.061-.479l.119 2.221c-.779.239-1.58.34-2.68.34-3.381 0-5.082-2.301-5.082-5.441 0-2.98 1.762-5.341 4.982-5.341 1.08 0 1.859.12 2.6.34l-.24 2.119zM466.195-61.827c-.98.54-2.1.82-3.541.82-3.4 0-5.381-1.961-5.381-5.342 0-2.98 1.58-5.44 4.781-5.44 3.82 0 4.9 2.62 4.9 6.221h-7.121c.119 1.661 1.279 2.601 2.941 2.601 1.299 0 2.42-.479 3.42-1.04v2.18zm-1.8-5.581c-.08-1.301-.68-2.421-2.18-2.421s-2.262 1.04-2.381 2.421h4.561zM486.176-69.389c-.82-.28-1.422-.44-2.4-.44-.721 0-1.582.26-1.582 1.141 0 1.641 4.662.6 4.662 4.32 0 2.401-2.141 3.361-4.322 3.361-1.02 0-2.059-.181-3.039-.44l.16-2.2c.84.42 1.719.68 2.641.68.68 0 1.76-.26 1.76-1.26 0-2.021-4.662-.641-4.662-4.361 0-2.221 1.941-3.2 4.041-3.2 1.262 0 2.082.2 2.922.38l-.181 2.019z"/>
  </g>
  <path fill="#69757C" d="M140.159-117.432c0-.756.288-1.439.828-1.943a2.747 2.747 0 0 1 1.979-.828c1.513 0 2.771 1.26 2.771 2.771s-1.259 2.771-2.771 2.771c-1.547 0-2.807-1.26-2.807-2.771z"/>
  <g fill="#69757C">
    <path d="M101.032-118.564h5.881v24.7h11.384v4.621h-17.265v-29.321zM140.134-110.877h5.629v21.634h-5.629v-21.634zM170.08-110.877h5.251v3.024h.084c1.764-2.646 4.326-3.528 6.428-3.528 3.023 0 5.166 1.134 6.385 3.822 1.303-2.604 4.117-3.822 6.764-3.822 5.334 0 6.847 3.654 6.847 8.485v13.652h-5.629v-12.896c0-2.017 0-4.873-3.235-4.873-3.738 0-4.2 4.453-4.2 7.268v10.502h-5.629v-12.896c0-2.017 0-4.873-3.235-4.873-3.738 0-4.2 4.453-4.2 7.268v10.502h-5.629v-21.635zM243.331-90.461c-2.059 1.134-4.411 1.722-7.436 1.722-7.142 0-11.301-4.116-11.301-11.216 0-6.259 3.319-11.426 10.041-11.426 8.023 0 10.291 5.503 10.291 13.064h-14.955c.252 3.486 2.689 5.461 6.176 5.461 2.73 0 5.082-1.009 7.184-2.185v4.58zm-3.781-11.721c-.168-2.73-1.428-5.083-4.578-5.083s-4.748 2.185-5 5.083h9.578zM267.94-119.122l5.629-1.627v31.506h-5.629v-29.879zM298.095-110.877h5.629v21.634h-5.629v-21.634zM347.995-110.877v19.533c0 5.881-2.352 11.426-11.426 11.426-2.227 0-4.789-.336-7.479-1.47l.463-4.789c1.723.924 4.537 1.891 6.301 1.891 6.217 0 6.512-4.663 6.512-8.401h-.084c-1.051 1.848-3.57 3.444-6.721 3.444-6.387 0-8.822-5.125-8.822-10.922 0-5.209 2.689-11.216 9.158-11.216 2.855 0 5.082.966 6.637 3.444h.084v-2.94h5.377zm-5.629 10.586c0-3.696-1.428-6.722-4.705-6.722-3.822 0-5.041 3.529-5.041 6.848 0 2.94 1.555 6.553 4.789 6.553 3.529 0 4.957-3.067 4.957-6.679zM372.267-118.872l5.629-1.877v12.812h.084c1.43-2.101 3.865-3.444 6.807-3.444 5.125 0 7.35 3.612 7.35 8.485v13.652h-5.629v-11.552c0-2.646-.041-6.218-3.654-6.218-4.074 0-4.957 4.411-4.957 7.184v10.586h-5.629v-29.628zM418.257-106.761h-4.158v-4.116h4.158v-4.327l5.629-1.806v6.133h5v4.116h-5v10.082c0 1.849.504 3.571 2.646 3.571 1.008 0 1.975-.211 2.562-.589l.168 4.453c-1.176.336-2.479.504-4.158.504-4.41 0-6.848-2.73-6.848-7.015v-11.006z"/>
  </g>
  <path fill="#69757C" d="M298.12-117.432c0-.756.288-1.439.828-1.943a2.747 2.747 0 0 1 1.979-.828c1.513 0 2.771 1.26 2.771 2.771s-1.259 2.771-2.771 2.771c-1.547 0-2.807-1.26-2.807-2.771z"/>
</svg>